<svg width="14" height="15" viewBox="0 0 14 15" fill="none" xmlns="http://www.w3.org/2000/svg">
<path fill-rule="evenodd" clip-rule="evenodd" d="M12.25 2H1.75C1.61193 2 1.5 2.11193 1.5 2.25V12.75C1.5 12.8881 1.61193 13 1.75 13H12.25C12.3881 13 12.5 12.8881 12.5 12.75V2.25C12.5 2.11193 12.3881 2 12.25 2ZM1.75 0.5H12.25C13.2165 0.5 14 1.2835 14 2.25V12.75C14 13.7165 13.2165 14.5 12.25 14.5H1.75C0.7835 14.5 0 13.7165 0 12.75V2.25C0 1.2835 0.7835 0.5 1.75 0.5ZM7 3.5C7.41421 3.5 7.75 3.83579 7.75 4.25V6.75H10.25C10.6642 6.75 11 7.08579 11 7.5C11 7.91421 10.6642 8.25 10.25 8.25H7.75V10.75C7.75 11.1642 7.41421 11.5 7 11.5C6.58579 11.5 6.25 11.1642 6.25 10.75V8.25H3.75C3.33579 8.25 3 7.91421 3 7.5C3 7.08579 3.33579 6.75 3.75 6.75H6.25V4.25C6.25 3.83579 6.58579 3.5 7 3.5Z" fill="#7EA613"/>
</svg>
