<svg width="15" height="15" viewBox="0 0 15 15" fill="none" xmlns="http://www.w3.org/2000/svg">
<path fill-rule="evenodd" clip-rule="evenodd" d="M10.4994 5.99941C10.4994 6.59035 10.383 7.17552 10.1568 7.72148C9.93072 8.26745 9.59922 8.76352 9.18142 9.18141C8.76352 9.59921 8.26745 9.93071 7.72148 10.1569C7.17552 10.383 6.59036 10.4994 5.99941 10.4994C5.40846 10.4994 4.8233 10.383 4.27733 10.1569C3.73137 9.93071 3.23529 9.59921 2.81743 9.18141C2.39956 8.76352 2.0681 8.26745 1.84195 7.72148C1.6158 7.17552 1.49941 6.59035 1.49941 5.99941C1.49941 4.80593 1.97351 3.66134 2.81743 2.81743C3.66134 1.97351 4.80593 1.49941 5.99941 1.49941C7.19288 1.49941 8.33747 1.97351 9.18142 2.81743C10.0253 3.66134 10.4994 4.80593 10.4994 5.99941ZM9.67942 10.7394C8.47379 11.6754 6.95678 12.1167 5.43721 11.9735C3.91764 11.8304 2.50975 11.1135 1.50016 9.96881C0.490564 8.82412 -0.0448365 7.3377 0.0029435 5.81216C0.0507335 4.28661 0.678114 2.83661 1.75736 1.75736C2.83662 0.678114 4.28661 0.0507338 5.81216 0.00294384C7.33771 -0.0448392 8.82412 0.490564 9.96882 1.50016C11.1135 2.50975 11.8304 3.91764 11.9735 5.43721C12.1167 6.95677 11.6754 8.47378 10.7394 9.67941L13.7794 12.7194C13.8531 12.7881 13.9122 12.8709 13.9532 12.9629C13.9942 13.0549 14.0162 13.1542 14.018 13.2549C14.0198 13.3556 14.0012 13.4556 13.9635 13.549C13.9258 13.6424 13.8696 13.7272 13.7984 13.7984C13.7272 13.8697 13.6424 13.9258 13.549 13.9635C13.4556 14.0012 13.3556 14.0198 13.2549 14.018C13.1542 14.0162 13.0548 13.9942 12.9629 13.9532C12.8709 13.9122 12.7881 13.8531 12.7194 13.7794L9.67942 10.7394Z" fill="#C3C7CF"/>
</svg>
